<svg width="20" height="20" viewBox="0 0 20 20" fill="none" xmlns="http://www.w3.org/2000/svg">
<mask id="path-1-inside-1_909_2485" fill="white">
<path d="M2.27677 10.6184H13.1128C13.4586 10.6184 13.7382 10.3384 13.7382 9.99344C13.7382 9.64844 13.4586 9.36844 13.1128 9.36844H2.31586L4.57825 7.1075C4.82246 6.86344 4.82246 6.46781 4.57825 6.22375C4.33403 5.97969 3.93815 5.97969 3.69393 6.22375L0 10.0128L3.69393 13.8019C3.8162 13.9241 3.97599 13.985 4.13609 13.985C4.29619 13.985 4.45598 13.9241 4.57825 13.8019C4.82246 13.5578 4.82246 13.1622 4.57825 12.9181L2.27677 10.6184ZM18.7489 0H8.11706C7.42599 0 6.86626 0.559687 6.86626 1.25V6.875H8.12519V2.01219C8.12519 1.59469 8.46415 1.25594 8.88192 1.25594H17.9643C18.3824 1.25594 18.721 1.59469 18.721 2.01219L18.7407 17.9944C18.7407 18.4119 18.4021 18.7506 17.984 18.7506H8.88225C8.46449 18.7506 8.12552 18.4119 8.12552 17.9944V13.1044L6.86659 13.1059V18.75C6.86659 19.4403 7.42632 20 8.11739 20H18.7489C19.44 20 20 19.4403 20 18.75V1.25C19.9997 0.559687 19.4396 0 18.7489 0Z"/>
</mask>
<path d="M2.27677 10.6184H13.1128C13.4586 10.6184 13.7382 10.3384 13.7382 9.99344C13.7382 9.64844 13.4586 9.36844 13.1128 9.36844H2.31586L4.57825 7.1075C4.82246 6.86344 4.82246 6.46781 4.57825 6.22375C4.33403 5.97969 3.93815 5.97969 3.69393 6.22375L0 10.0128L3.69393 13.8019C3.8162 13.9241 3.97599 13.985 4.13609 13.985C4.29619 13.985 4.45598 13.9241 4.57825 13.8019C4.82246 13.5578 4.82246 13.1622 4.57825 12.9181L2.27677 10.6184ZM18.7489 0H8.11706C7.42599 0 6.86626 0.559687 6.86626 1.25V6.875H8.12519V2.01219C8.12519 1.59469 8.46415 1.25594 8.88192 1.25594H17.9643C18.3824 1.25594 18.721 1.59469 18.721 2.01219L18.7407 17.9944C18.7407 18.4119 18.4021 18.7506 17.984 18.7506H8.88225C8.46449 18.7506 8.12552 18.4119 8.12552 17.9944V13.1044L6.86659 13.1059V18.75C6.86659 19.4403 7.42632 20 8.11739 20H18.7489C19.44 20 20 19.4403 20 18.75V1.25C19.9997 0.559687 19.4396 0 18.7489 0Z" fill="#A6A6A6"/>
<path d="M2.27677 10.6184V8.61844H-2.55431L0.863107 12.0332L2.27677 10.6184ZM2.31586 9.36844L0.902098 7.95377L-2.51476 11.3684H2.31586V9.36844ZM4.57825 7.1075L3.16449 5.69283H3.16449L4.57825 7.1075ZM3.69393 6.22375L2.28017 4.80908L2.27095 4.8183L2.26185 4.82763L3.69393 6.22375ZM0 10.0128L-1.43208 8.61669L-2.79315 10.0128L-1.43208 11.4089L0 10.0128ZM3.69393 13.8019L2.26185 15.198L2.27095 15.2073L2.28017 15.2165L3.69393 13.8019ZM4.57825 13.8019L5.99201 15.2165L4.57825 13.8019ZM4.57825 12.9181L5.99201 11.5035L5.99191 11.5034L4.57825 12.9181ZM6.86626 6.875H4.86626V8.875H6.86626V6.875ZM8.12519 6.875V8.875H10.1252V6.875H8.12519ZM18.721 2.01219H16.721L16.721 2.01465L18.721 2.01219ZM18.7407 17.9944H20.7407L20.7407 17.9919L18.7407 17.9944ZM8.12552 13.1044H10.1255V11.1019L8.12304 11.1044L8.12552 13.1044ZM6.86659 13.1059L6.8641 11.1059L4.86659 11.1084V13.1059H6.86659ZM20 1.25H22L22 1.24915L20 1.25ZM2.27677 12.6184H13.1128V8.61844H2.27677V12.6184ZM13.1128 12.6184C14.5633 12.6184 15.7382 11.4429 15.7382 9.99344H11.7382C11.7382 9.23396 12.354 8.61844 13.1128 8.61844V12.6184ZM15.7382 9.99344C15.7382 8.54396 14.5633 7.36844 13.1128 7.36844V11.3684C12.354 11.3684 11.7382 10.7529 11.7382 9.99344H15.7382ZM13.1128 7.36844H2.31586V11.3684H13.1128V7.36844ZM3.72962 10.7831L5.99201 8.52217L3.16449 5.69283L0.902098 7.95377L3.72962 10.7831ZM5.99201 8.52217C7.01788 7.49695 7.01788 5.8343 5.99201 4.80908L3.16449 7.63842C2.62705 7.10133 2.62705 6.22992 3.16449 5.69283L5.99201 8.52217ZM5.99201 4.80908C4.96684 3.78458 3.30533 3.78458 2.28017 4.80908L5.10769 7.63842C4.57096 8.1748 3.70121 8.1748 3.16449 7.63842L5.99201 4.80908ZM2.26185 4.82763L-1.43208 8.61669L1.43208 11.4089L5.12601 7.61987L2.26185 4.82763ZM-1.43208 11.4089L2.26185 15.198L5.12601 12.4058L1.43208 8.61669L-1.43208 11.4089ZM2.28017 15.2165C2.79232 15.7284 3.46715 15.985 4.13609 15.985V11.985C4.48482 11.985 4.84007 12.1198 5.10769 12.3872L2.28017 15.2165ZM4.13609 15.985C4.80503 15.985 5.47985 15.7284 5.99201 15.2165L3.16449 12.3872C3.43211 12.1198 3.78735 11.985 4.13609 11.985V15.985ZM5.99201 15.2165C7.01788 14.1913 7.01788 12.5287 5.99201 11.5035L3.16449 14.3328C2.62705 13.7957 2.62705 12.9243 3.16449 12.3872L5.99201 15.2165ZM5.99191 11.5034L3.69044 9.20368L0.863107 12.0332L3.16458 14.3329L5.99191 11.5034ZM18.7489 -2H8.11706V2H18.7489V-2ZM8.11706 -2C6.3223 -2 4.86626 -0.545764 4.86626 1.25H8.86625C8.86625 1.66514 8.52968 2 8.11706 2V-2ZM4.86626 1.25V6.875H8.86625V1.25H4.86626ZM6.86626 8.875H8.12519V4.875H6.86626V8.875ZM10.1252 6.875V2.01219H6.12519V6.875H10.1252ZM10.1252 2.01219C10.1252 2.70046 9.56752 3.25594 8.88192 3.25594V-0.744062C7.36079 -0.744062 6.12519 0.488912 6.12519 2.01219H10.1252ZM8.88192 3.25594H17.9643V-0.744062H8.88192V3.25594ZM17.9643 3.25594C17.2785 3.25594 16.721 2.69997 16.721 2.01219H20.721C20.721 0.489407 19.4862 -0.744062 17.9643 -0.744062V3.25594ZM16.721 2.01465L16.7407 17.9968L20.7407 17.9919L20.721 2.00973L16.721 2.01465ZM16.7407 17.9944C16.7407 17.3066 17.2982 16.7506 17.984 16.7506V20.7506C19.506 20.7506 20.7407 19.5171 20.7407 17.9944H16.7407ZM17.984 16.7506H8.88225V20.7506H17.984V16.7506ZM8.88225 16.7506C9.56784 16.7506 10.1255 17.3061 10.1255 17.9944H6.12552C6.12552 19.5177 7.36113 20.7506 8.88225 20.7506V16.7506ZM10.1255 17.9944V13.1044H6.12552V17.9944H10.1255ZM8.12304 11.1044L6.8641 11.1059L6.86907 15.1059L8.128 15.1044L8.12304 11.1044ZM4.86659 13.1059V18.75H8.86659V13.1059H4.86659ZM4.86659 18.75C4.86659 20.5458 6.32263 22 8.11739 22V18C8.53001 18 8.86659 18.3349 8.86659 18.75H4.86659ZM8.11739 22H18.7489V18H8.11739V22ZM18.7489 22C20.543 22 22 20.5464 22 18.75H18C18 18.3342 18.3369 18 18.7489 18V22ZM22 18.75V1.25H18V18.75H22ZM22 1.24915C21.9992 -0.546151 20.5431 -2 18.7489 -2V2C18.3362 2 18.0002 1.66553 18 1.25085L22 1.24915Z" fill="#A6A6A6" mask="url(#path-1-inside-1_909_2485)"/>
</svg>
